<svg
  width="66"
  height="67"
  viewBox="0 0 66 67"
  fill="none"
  xmlns="http://www.w3.org/2000/svg"
>
<path
    d="M53.7792 32.7388C53.2267 32.5 50.3139 31.1698 49.127 27.8751C48.3562 25.7468 48.6972 23.8641 48.8882 23.0728C50.0752 20.9786 51.2621 18.8844 52.449 16.7902C53.1926 15.4805 53.9361 14.1708 54.6796 12.8679C55.4641 14.3891 56.2554 16.0671 57.0126 17.9021C57.8243 19.8735 58.486 21.7494 59.0249 23.4957C59.1204 24.3961 59.1613 25.9378 58.5201 27.6568C57.2922 30.9311 54.5091 32.3909 53.7792 32.7456V32.7388Z"
    fill="#0F70B7"
  />
<path
    d="M54.9388 34.9216C54.3386 34.908 51.1393 34.7784 48.7859 32.1862C47.2647 30.5082 46.8623 28.6391 46.7395 27.8341C47.0464 25.4466 47.3466 23.0591 47.6535 20.6716C47.8445 19.1777 48.0355 17.6907 48.2265 16.1968C49.5294 17.3087 50.9006 18.557 52.2921 19.969C53.7928 21.4834 55.1162 22.9705 56.2758 24.3757C56.7124 25.1738 57.3263 26.5858 57.3877 28.414C57.4969 31.9066 55.4709 34.3213 54.932 34.9216H54.9388Z"
    fill="#0F70B7"
  />
<path
    d="M54.5296 34.9216C55.1298 34.908 58.3291 34.7784 60.6825 32.1862C62.2037 30.5082 62.6061 28.6391 62.7289 27.8341C62.422 25.4466 62.1218 23.0591 61.8149 20.6716C61.6239 19.1777 61.4329 17.6907 61.2419 16.1968C59.939 17.3087 58.5679 18.557 57.1763 19.969C55.6756 21.4834 54.3522 22.9705 53.1926 24.3757C52.756 25.1738 52.142 26.5858 52.0807 28.414C51.9715 31.9066 53.9975 34.3213 54.5364 34.9216H54.5296Z"
    fill="#0F70B7"
  />
<path
    d="M54.475 52.2754V34.9216"
    stroke="#0F70B7"
    stroke-width="0.170536"
    stroke-miterlimit="10"
  />
<path
    d="M55.0889 52.3913C55.546 52.5414 57.9949 53.2781 60.4438 51.9343C62.0332 51.0612 62.8176 49.7583 63.1246 49.1784C63.5202 47.2957 63.9091 45.413 64.3047 43.5371C64.5503 42.3638 64.7958 41.1837 65.0414 40.0104C63.7658 40.5084 62.4083 41.095 60.9895 41.7908C59.4615 42.5412 58.0767 43.3188 56.8284 44.076C56.2963 44.5671 55.4573 45.4676 54.9388 46.8387C53.9497 49.4445 54.8434 51.7911 55.0957 52.3913H55.0889Z"
    fill="#0F70B7"
    stroke="#0F70B7"
    stroke-width="0.170536"
    stroke-miterlimit="10"
  />
<path
    d="M54.1749 51.9275C53.7519 52.0639 51.494 52.7461 49.2361 51.5045C47.7763 50.6996 47.0464 49.499 46.7668 48.967C46.4052 47.2343 46.0437 45.4949 45.6822 43.7622C45.4571 42.6776 45.2319 41.593 45 40.5084C46.1733 40.9654 47.4284 41.5111 48.7382 42.1523C50.1502 42.8481 51.4258 43.5576 52.5718 44.2602C53.063 44.7104 53.8338 45.5426 54.3181 46.8046C55.2322 49.2125 54.4068 51.3749 54.1749 51.9275Z"
    fill="#0F70B7"
    stroke="#0F70B7"
    stroke-width="0.170536"
    stroke-miterlimit="10"
  />
<path
    d="M2.448 52.255C2.006 52.255 1.649 52.204 1.377 52.102C1.105 52.034 0.969 51.898 0.969 51.694C0.969 51.456 1.105 51.269 1.377 51.133C1.649 50.997 2.074 50.878 2.652 50.776C3.502 50.606 4.199 50.198 4.743 49.552C5.287 48.906 5.644 47.988 5.814 46.798C6.222 43.738 6.579 40.831 6.885 38.077C7.191 35.289 7.429 32.79 7.599 30.58C7.803 28.336 7.905 26.5 7.905 25.072C7.905 24.8 7.905 24.511 7.905 24.205C7.905 23.899 7.888 23.627 7.854 23.389C7.82 23.117 7.769 22.845 7.701 22.573C7.633 22.267 7.429 21.978 7.089 21.706C6.477 21.196 5.882 20.856 5.304 20.686C4.726 20.482 4.046 20.312 3.264 20.176C2.924 20.108 2.652 19.989 2.448 19.819C2.244 19.615 2.142 19.394 2.142 19.156C2.142 18.884 2.295 18.731 2.601 18.697C2.941 18.629 3.366 18.595 3.876 18.595C4.216 18.595 4.726 18.612 5.406 18.646C6.12 18.68 6.885 18.731 7.701 18.799C8.517 18.867 9.265 18.918 9.945 18.952C10.659 18.986 11.186 19.003 11.526 19.003C11.764 19.003 11.968 19.071 12.138 19.207C12.308 19.343 12.427 19.547 12.495 19.819C12.665 20.431 12.835 21.077 13.005 21.757C13.175 22.437 13.379 23.1 13.617 23.746L21.675 44.197C21.777 44.435 21.964 44.588 22.236 44.656C22.508 44.69 22.712 44.588 22.848 44.35L32.895 23.44C33.065 22.862 33.235 22.216 33.405 21.502C33.575 20.788 33.711 20.159 33.813 19.615C33.915 19.173 34.085 18.952 34.323 18.952H36.159C37.179 18.952 38.25 18.884 39.372 18.748C40.528 18.612 41.395 18.544 41.973 18.544C42.143 18.544 42.364 18.578 42.636 18.646C42.908 18.68 43.044 18.816 43.044 19.054C43.044 19.292 42.942 19.479 42.738 19.615C42.568 19.751 42.228 19.921 41.718 20.125C41.276 20.295 40.783 20.482 40.239 20.686C39.695 20.89 39.185 21.094 38.709 21.298C38.369 21.434 38.08 21.672 37.842 22.012C37.604 22.318 37.485 22.658 37.485 23.032C37.485 25.412 37.519 27.656 37.587 29.764C37.689 31.838 37.791 33.844 37.893 35.782C37.995 37.686 38.114 39.573 38.25 41.443C38.386 43.313 38.505 45.217 38.607 47.155C38.675 48.209 39.015 49.025 39.627 49.603C40.239 50.147 41.174 50.538 42.432 50.776C43.01 50.878 43.435 50.997 43.707 51.133C43.979 51.269 44.115 51.456 44.115 51.694C44.115 51.898 43.979 52.034 43.707 52.102C43.435 52.204 43.078 52.255 42.636 52.255C41.718 52.255 40.953 52.221 40.341 52.153C39.763 52.119 39.202 52.085 38.658 52.051C38.114 52.017 37.451 52 36.669 52C35.989 52 35.411 52.017 34.935 52.051C34.493 52.085 34 52.119 33.456 52.153C32.946 52.221 32.232 52.255 31.314 52.255C30.872 52.255 30.515 52.204 30.243 52.102C29.971 52.034 29.835 51.898 29.835 51.694C29.835 51.456 29.971 51.269 30.243 51.133C30.515 50.963 30.94 50.844 31.518 50.776C32.504 50.64 33.184 50.3 33.558 49.756C33.932 49.178 34.119 48.294 34.119 47.104C34.119 44.656 34.085 42.446 34.017 40.474C33.983 38.502 33.915 36.564 33.813 34.66C33.711 32.722 33.609 30.614 33.507 28.336C33.473 27.962 33.371 27.792 33.201 27.826C33.031 27.826 32.861 27.996 32.691 28.336L20.961 52.255C20.893 52.425 20.74 52.51 20.502 52.51C20.264 52.544 20.111 52.442 20.043 52.204C18.717 48.226 17.289 44.316 15.759 40.474C14.263 36.598 12.563 32.433 10.659 27.979C10.591 27.809 10.472 27.724 10.302 27.724C10.132 27.724 10.03 27.809 9.996 27.979C9.69 30.359 9.401 32.552 9.129 34.558C8.891 36.53 8.704 38.485 8.568 40.423C8.432 42.361 8.364 44.486 8.364 46.798C8.364 47.716 8.653 48.566 9.231 49.348C9.809 50.096 10.625 50.572 11.679 50.776C12.257 50.878 12.682 50.997 12.954 51.133C13.226 51.269 13.362 51.456 13.362 51.694C13.362 51.898 13.226 52.034 12.954 52.102C12.682 52.204 12.325 52.255 11.883 52.255C10.965 52.255 10.268 52.221 9.792 52.153C9.35 52.119 8.942 52.085 8.568 52.051C8.228 52.017 7.735 52 7.089 52C6.477 52 6.001 52.017 5.661 52.051C5.321 52.085 4.93 52.119 4.488 52.153C4.046 52.221 3.366 52.255 2.448 52.255Z"
    fill="#0F70B7"
  />
</svg>
