<svg width="121" height="45" viewBox="0 0 121 45" fill="none" xmlns="http://www.w3.org/2000/svg">
<path d="M109.383 20.7388C108.83 20.5 105.918 19.1698 104.731 15.8751C103.96 13.7468 104.301 11.8641 104.492 11.0728C105.679 8.97859 106.866 6.8844 108.053 4.79022C108.796 3.4805 109.54 2.17079 110.283 0.867889C111.068 2.38907 111.859 4.06715 112.616 5.90212C113.428 7.87351 114.09 9.74941 114.629 11.4957C114.724 12.3961 114.765 13.9378 114.124 15.6568C112.896 18.9311 110.113 20.3909 109.383 20.7456V20.7388Z" fill="#0F70B7"/>
<path d="M110.542 22.9216C109.942 22.908 106.743 22.7784 104.39 20.1862C102.868 18.5082 102.466 16.6391 102.343 15.8341C102.65 13.4466 102.95 11.0591 103.257 8.67163C103.448 7.17773 103.639 5.69066 103.83 4.19676C105.133 5.30866 106.504 6.55698 107.896 7.96902C109.396 9.48338 110.72 10.9705 111.879 12.3757C112.316 13.1738 112.93 14.5858 112.991 16.414C113.101 19.9066 111.075 22.3213 110.536 22.9216H110.542Z" fill="#0F70B7"/>
<path d="M110.133 22.9216C110.733 22.908 113.933 22.7784 116.286 20.1862C117.807 18.5082 118.21 16.6391 118.333 15.8341C118.026 13.4466 117.725 11.0591 117.419 8.67163C117.228 7.17773 117.037 5.69066 116.846 4.19676C115.543 5.30866 114.171 6.55698 112.78 7.96902C111.279 9.48338 109.956 10.9705 108.796 12.3757C108.36 13.1738 107.746 14.5858 107.684 16.414C107.575 19.9066 109.601 22.3213 110.14 22.9216H110.133Z" fill="#0F70B7"/>
<path d="M110.079 40.2754V22.9216" stroke="#0F70B7" stroke-width="0.170536" stroke-miterlimit="10"/>
<path d="M110.693 40.3913C111.15 40.5414 113.598 41.2781 116.047 39.9343C117.637 39.0612 118.421 37.7583 118.728 37.1784C119.124 35.2957 119.513 33.413 119.908 31.5371C120.154 30.3638 120.399 29.1837 120.645 28.0104C119.369 28.5084 118.012 29.095 116.593 29.7908C115.065 30.5412 113.68 31.3188 112.432 32.076C111.9 32.5671 111.061 33.4676 110.542 34.8387C109.553 37.4445 110.447 39.7911 110.699 40.3913H110.693Z" fill="#0F70B7" stroke="#0F70B7" stroke-width="0.170536" stroke-miterlimit="10"/>
<path d="M109.778 39.9275C109.356 40.0639 107.098 40.7461 104.84 39.5045C103.38 38.6996 102.65 37.499 102.37 36.967C102.009 35.2343 101.647 33.4949 101.286 31.7622C101.061 30.6776 100.836 29.593 100.604 28.5084C101.777 28.9654 103.032 29.5111 104.342 30.1523C105.754 30.8481 107.029 31.5576 108.175 32.2602C108.667 32.7104 109.437 33.5426 109.922 34.8046C110.836 37.2125 110.01 39.3749 109.778 39.9275Z" fill="#0F70B7" stroke="#0F70B7" stroke-width="0.170536" stroke-miterlimit="10"/>
<path d="M2.448 40.255C2.006 40.255 1.649 40.204 1.377 40.102C1.105 40.034 0.969 39.898 0.969 39.694C0.969 39.456 1.105 39.269 1.377 39.133C1.649 38.997 2.074 38.878 2.652 38.776C3.502 38.606 4.199 38.198 4.743 37.552C5.287 36.906 5.644 35.988 5.814 34.798C6.222 31.738 6.579 28.831 6.885 26.077C7.191 23.289 7.429 20.79 7.599 18.58C7.803 16.336 7.905 14.5 7.905 13.072C7.905 12.8 7.905 12.511 7.905 12.205C7.905 11.899 7.888 11.627 7.854 11.389C7.82 11.117 7.769 10.845 7.701 10.573C7.633 10.267 7.429 9.978 7.089 9.706C6.477 9.196 5.882 8.856 5.304 8.686C4.726 8.482 4.046 8.312 3.264 8.176C2.924 8.108 2.652 7.989 2.448 7.819C2.244 7.615 2.142 7.394 2.142 7.156C2.142 6.884 2.295 6.731 2.601 6.697C2.941 6.629 3.366 6.595 3.876 6.595C4.216 6.595 4.726 6.612 5.406 6.646C6.12 6.68 6.885 6.731 7.701 6.799C8.517 6.867 9.265 6.918 9.945 6.952C10.659 6.986 11.186 7.003 11.526 7.003C11.764 7.003 11.968 7.071 12.138 7.207C12.308 7.343 12.427 7.547 12.495 7.819C12.665 8.431 12.835 9.077 13.005 9.757C13.175 10.437 13.379 11.1 13.617 11.746L21.675 32.197C21.777 32.435 21.964 32.588 22.236 32.656C22.508 32.69 22.712 32.588 22.848 32.35L32.895 11.44C33.065 10.862 33.235 10.216 33.405 9.502C33.575 8.788 33.711 8.159 33.813 7.615C33.915 7.173 34.085 6.952 34.323 6.952H36.159C37.179 6.952 38.25 6.884 39.372 6.748C40.528 6.612 41.395 6.544 41.973 6.544C42.143 6.544 42.364 6.578 42.636 6.646C42.908 6.68 43.044 6.816 43.044 7.054C43.044 7.292 42.942 7.479 42.738 7.615C42.568 7.751 42.228 7.921 41.718 8.125C41.276 8.295 40.783 8.482 40.239 8.686C39.695 8.89 39.185 9.094 38.709 9.298C38.369 9.434 38.08 9.672 37.842 10.012C37.604 10.318 37.485 10.658 37.485 11.032C37.485 13.412 37.519 15.656 37.587 17.764C37.689 19.838 37.791 21.844 37.893 23.782C37.995 25.686 38.114 27.573 38.25 29.443C38.386 31.313 38.505 33.217 38.607 35.155C38.675 36.209 39.015 37.025 39.627 37.603C40.239 38.147 41.174 38.538 42.432 38.776C43.01 38.878 43.435 38.997 43.707 39.133C43.979 39.269 44.115 39.456 44.115 39.694C44.115 39.898 43.979 40.034 43.707 40.102C43.435 40.204 43.078 40.255 42.636 40.255C41.718 40.255 40.953 40.221 40.341 40.153C39.763 40.119 39.202 40.085 38.658 40.051C38.114 40.017 37.451 40 36.669 40C35.989 40 35.411 40.017 34.935 40.051C34.493 40.085 34 40.119 33.456 40.153C32.946 40.221 32.232 40.255 31.314 40.255C30.872 40.255 30.515 40.204 30.243 40.102C29.971 40.034 29.835 39.898 29.835 39.694C29.835 39.456 29.971 39.269 30.243 39.133C30.515 38.963 30.94 38.844 31.518 38.776C32.504 38.64 33.184 38.3 33.558 37.756C33.932 37.178 34.119 36.294 34.119 35.104C34.119 32.656 34.085 30.446 34.017 28.474C33.983 26.502 33.915 24.564 33.813 22.66C33.711 20.722 33.609 18.614 33.507 16.336C33.473 15.962 33.371 15.792 33.201 15.826C33.031 15.826 32.861 15.996 32.691 16.336L20.961 40.255C20.893 40.425 20.74 40.51 20.502 40.51C20.264 40.544 20.111 40.442 20.043 40.204C18.717 36.226 17.289 32.316 15.759 28.474C14.263 24.598 12.563 20.433 10.659 15.979C10.591 15.809 10.472 15.724 10.302 15.724C10.132 15.724 10.03 15.809 9.996 15.979C9.69 18.359 9.401 20.552 9.129 22.558C8.891 24.53 8.704 26.485 8.568 28.423C8.432 30.361 8.364 32.486 8.364 34.798C8.364 35.716 8.653 36.566 9.231 37.348C9.809 38.096 10.625 38.572 11.679 38.776C12.257 38.878 12.682 38.997 12.954 39.133C13.226 39.269 13.362 39.456 13.362 39.694C13.362 39.898 13.226 40.034 12.954 40.102C12.682 40.204 12.325 40.255 11.883 40.255C10.965 40.255 10.268 40.221 9.792 40.153C9.35 40.119 8.942 40.085 8.568 40.051C8.228 40.017 7.735 40 7.089 40C6.477 40 6.001 40.017 5.661 40.051C5.321 40.085 4.93 40.119 4.488 40.153C4.046 40.221 3.366 40.255 2.448 40.255ZM50.4306 40.714C49.8186 40.714 49.1896 40.476 48.5436 40C47.9316 39.524 47.4046 38.946 46.9626 38.266C46.5546 37.586 46.3506 36.94 46.3506 36.328C46.3506 35.24 46.6396 34.39 47.2176 33.778C47.7956 33.166 48.7136 32.605 49.9716 32.095L55.1736 29.953C55.8536 29.681 56.2446 29.443 56.3466 29.239C56.4826 29.035 56.5676 28.593 56.6016 27.913L56.7036 24.649C56.7376 23.765 56.4826 23 55.9386 22.354C55.4286 21.708 54.6806 21.385 53.6946 21.385C53.1846 21.385 52.6746 21.47 52.1646 21.64C51.6546 21.81 51.2296 22.031 50.8896 22.303C50.6856 22.439 50.5496 22.643 50.4816 22.915C50.4136 23.187 50.3796 23.476 50.3796 23.782C50.3796 23.918 50.3796 24.071 50.3796 24.241C50.4136 24.411 50.4306 24.564 50.4306 24.7C50.4306 24.87 50.2096 25.108 49.7676 25.414C49.3596 25.686 48.8836 25.941 48.3396 26.179C47.8296 26.383 47.4046 26.485 47.0646 26.485C46.8946 26.485 46.7586 26.451 46.6566 26.383C46.5546 26.281 46.5036 26.162 46.5036 26.026C46.5036 25.482 46.6736 24.904 47.0136 24.292C47.3876 23.646 47.8976 23.051 48.5436 22.507C49.3256 21.793 50.1756 21.164 51.0936 20.62C52.0116 20.076 52.9126 19.651 53.7966 19.345C54.6806 19.039 55.4626 18.886 56.1426 18.886C57.3666 18.886 58.3696 19.328 59.1516 20.212C59.9676 21.062 60.3586 22.133 60.3246 23.425L60.0696 35.665C60.0356 36.379 60.1886 36.957 60.5286 37.399C60.9026 37.841 61.3616 38.062 61.9056 38.062C62.7556 38.062 63.3846 37.875 63.7926 37.501C63.9626 37.331 64.0986 37.246 64.2006 37.246C64.3706 37.246 64.5066 37.297 64.6086 37.399C64.7106 37.501 64.7616 37.637 64.7616 37.807C64.7616 38.181 64.5746 38.555 64.2006 38.929C63.6566 39.473 63.0616 39.898 62.4156 40.204C61.8036 40.544 61.2256 40.714 60.6816 40.714C59.1176 40.714 57.8766 39.83 56.9586 38.062H56.8056C55.6836 38.98 54.6126 39.643 53.5926 40.051C52.5726 40.493 51.5186 40.714 50.4306 40.714ZM52.8276 38.266C53.5076 38.266 54.0856 38.164 54.5616 37.96C55.0376 37.722 55.4626 37.416 55.8366 37.042C56.0066 36.872 56.1426 36.651 56.2446 36.379C56.3806 36.073 56.4656 35.597 56.4996 34.951L56.6016 32.452C56.6356 32.078 56.6186 31.806 56.5506 31.636C56.4826 31.466 56.3466 31.381 56.1426 31.381C56.0746 31.381 55.9556 31.398 55.7856 31.432C55.6156 31.466 55.3946 31.534 55.1226 31.636C53.3206 32.282 52.0626 32.962 51.3486 33.676C50.6686 34.356 50.3286 34.985 50.3286 35.563C50.3286 36.447 50.5836 37.127 51.0936 37.603C51.6376 38.045 52.2156 38.266 52.8276 38.266ZM66.8228 40.153C66.4828 40.153 66.2278 40.102 66.0578 40C65.8878 39.932 65.8028 39.796 65.8028 39.592C65.8028 39.32 65.9048 39.15 66.1088 39.082C66.3128 38.98 66.6018 38.878 66.9758 38.776C67.6218 38.606 68.0978 38.368 68.4038 38.062C68.7438 37.722 68.9138 37.314 68.9138 36.838V25.873C68.9138 24.955 68.7778 24.156 68.5058 23.476C68.2338 22.796 67.6728 22.371 66.8228 22.201C66.6868 22.167 66.5678 22.082 66.4658 21.946C66.3638 21.81 66.3128 21.674 66.3128 21.538C66.3128 21.198 66.4658 20.994 66.7718 20.926C67.6558 20.654 68.5738 20.263 69.5258 19.753C70.5118 19.209 71.2768 18.767 71.8208 18.427C72.0248 18.291 72.1778 18.206 72.2798 18.172C72.4158 18.104 72.5178 18.07 72.5858 18.07C72.7558 18.07 72.8408 18.189 72.8408 18.427C72.8408 18.529 72.8238 18.784 72.7898 19.192C72.7898 19.6 72.7728 20.076 72.7388 20.62C72.7388 21.164 72.7218 21.708 72.6878 22.252C72.6878 22.32 72.7218 22.354 72.7898 22.354C73.3338 21.674 73.9288 21.079 74.5748 20.569C75.2548 20.059 75.9348 19.651 76.6148 19.345C77.3288 19.039 78.0088 18.886 78.6548 18.886C79.3688 18.886 79.9468 19.039 80.3888 19.345C80.8648 19.651 81.1028 20.042 81.1028 20.518C81.1028 20.858 81.0008 21.232 80.7968 21.64C80.6268 22.048 80.3888 22.405 80.0828 22.711C79.7768 23.017 79.4538 23.17 79.1138 23.17C78.9098 23.17 78.6888 23.136 78.4508 23.068C78.2128 22.966 77.9578 22.847 77.6858 22.711C77.4138 22.609 77.1418 22.507 76.8698 22.405C76.5978 22.303 76.3258 22.252 76.0538 22.252C75.2378 22.252 74.4388 22.541 73.6568 23.119C72.9088 23.697 72.5348 24.836 72.5348 26.536V36.838C72.5348 37.28 72.7728 37.654 73.2488 37.96C73.7248 38.232 74.3878 38.504 75.2378 38.776C75.6118 38.878 75.9008 38.98 76.1048 39.082C76.3088 39.184 76.4108 39.354 76.4108 39.592C76.4108 39.966 76.0708 40.153 75.3908 40.153C74.3708 40.153 73.5888 40.102 73.0448 40C72.5348 39.932 71.8378 39.898 70.9538 39.898C70.3758 39.898 69.8998 39.915 69.5258 39.949C69.1858 39.983 68.8118 40.017 68.4038 40.051C68.0298 40.119 67.5028 40.153 66.8228 40.153ZM90.486 40.714C88.82 40.714 87.511 40.204 86.559 39.184C85.641 38.164 85.182 36.651 85.182 34.645V22.813C85.182 22.541 85.08 22.354 84.876 22.252C84.672 22.116 84.23 22.048 83.55 22.048H83.244C83.074 22.048 82.921 21.946 82.785 21.742C82.683 21.504 82.632 21.266 82.632 21.028C82.632 20.96 82.683 20.858 82.785 20.722C82.887 20.586 82.955 20.501 82.989 20.467C83.669 19.991 84.281 19.515 84.825 19.039C85.403 18.563 85.913 18.104 86.355 17.662C86.831 17.186 87.222 16.761 87.528 16.387C87.698 16.217 87.834 16.081 87.936 15.979C88.072 15.843 88.225 15.775 88.395 15.775C88.565 15.775 88.718 15.809 88.854 15.877C89.024 15.945 89.092 16.098 89.058 16.336L88.803 18.631C88.769 19.005 88.854 19.26 89.058 19.396C89.262 19.532 89.585 19.6 90.027 19.6H95.841C95.977 19.6 96.096 19.719 96.198 19.957C96.3 20.161 96.351 20.416 96.351 20.722C96.351 21.028 96.3 21.334 96.198 21.64C96.096 21.912 95.977 22.048 95.841 22.048H90.792C89.942 22.048 89.381 22.116 89.109 22.252C88.871 22.388 88.752 22.796 88.752 23.476V33.523C88.752 34.883 89.041 35.954 89.619 36.736C90.197 37.518 91.03 37.909 92.118 37.909C93.104 37.909 93.869 37.841 94.413 37.705C94.957 37.535 95.45 37.297 95.892 36.991C95.96 36.923 96.028 36.889 96.096 36.889C96.232 36.889 96.317 36.974 96.351 37.144C96.419 37.28 96.453 37.433 96.453 37.603C96.453 37.773 96.164 38.113 95.586 38.623C95.042 39.133 94.311 39.609 93.393 40.051C92.509 40.493 91.54 40.714 90.486 40.714Z" fill="#0F70B7"/>
</svg>
