<svg width="99" height="44" viewBox="0 0 99 44" fill="none" xmlns="http://www.w3.org/2000/svg">
  <path d="M88.8525 26.5939C88.4037 26.4 86.0376 25.3195 85.0735 22.6431C84.4473 20.9143 84.7244 19.385 84.8795 18.7422C85.8437 17.0411 86.8078 15.3399 87.772 13.6388C88.376 12.5749 88.9799 11.511 89.5839 10.4527C90.2212 11.6884 90.8639 13.0515 91.479 14.542C92.1384 16.1434 92.6759 17.6672 93.1136 19.0857C93.1912 19.8172 93.2244 21.0695 92.7036 22.4658C91.7062 25.1255 89.4454 26.3113 88.8525 26.5995V26.5939Z" fill="#0F70B7" stroke="#F6F6F6" stroke-width="0.138528" stroke-miterlimit="10"/>
  <path d="M89.7945 28.3671C89.3069 28.356 86.7081 28.2507 84.7964 26.1451C83.5607 24.782 83.2338 23.2637 83.1341 22.6099C83.3834 20.6705 83.6272 18.7311 83.8766 16.7917C84.0317 15.5782 84.1869 14.3702 84.342 13.1567C85.4004 14.0599 86.5142 15.074 87.6445 16.221C88.8636 17.4511 89.9386 18.6591 90.8806 19.8005C91.2352 20.4489 91.7339 21.5959 91.7837 23.0809C91.8724 25.9179 90.2267 27.8795 89.789 28.3671H89.7945Z" fill="#0F70B7" stroke="#F6F6F6" stroke-width="0.138528" stroke-miterlimit="10"/>
  <path d="M89.462 28.3671C89.9496 28.356 92.5484 28.2507 94.4601 26.1451C95.6958 24.782 96.0227 23.2637 96.1224 22.6099C95.8731 20.6705 95.6293 18.7311 95.3799 16.7917C95.2248 15.5782 95.0696 14.3702 94.9145 13.1567C93.8561 14.0599 92.7424 15.074 91.612 16.221C90.3929 17.4511 89.318 18.6591 88.376 19.8005C88.0213 20.4489 87.5226 21.5959 87.4728 23.0809C87.3841 25.9179 89.0298 27.8795 89.4676 28.3671H89.462Z" fill="#0F70B7" stroke="#F6F6F6" stroke-width="0.138528" stroke-miterlimit="10"/>
  <path d="M89.4177 42.4637V28.3671" stroke="#0F70B7" stroke-width="0.138528" stroke-miterlimit="10"/>
  <path d="M89.9164 42.5579C90.2877 42.6798 92.2769 43.2783 94.2662 42.1867C95.5573 41.4774 96.1945 40.419 96.4438 39.948C96.7652 38.4187 97.0811 36.8893 97.4024 35.3655C97.6019 34.4125 97.8014 33.4539 98.0009 32.5008C96.9647 32.9053 95.862 33.3818 94.7095 33.947C93.4683 34.5565 92.3434 35.1882 91.3294 35.8033C90.8972 36.2023 90.2156 36.9337 89.7945 38.0474C88.991 40.1641 89.7169 42.0703 89.9219 42.5579H89.9164Z" fill="#0F70B7" stroke="#0F70B7" stroke-width="0.138528" stroke-miterlimit="10"/>
  <path d="M89.1739 42.1811C88.8303 42.2919 86.9962 42.846 85.1621 41.8376C83.9763 41.1837 83.3834 40.2085 83.1562 39.7763C82.8626 38.3688 82.5689 36.9558 82.2752 35.5484C82.0924 34.6674 81.9095 33.7863 81.7211 32.9053C82.6742 33.2765 83.6937 33.7198 84.7576 34.2407C85.9046 34.8059 86.9408 35.3822 87.8717 35.9529C88.2707 36.3186 88.8968 36.9946 89.2903 38.0197C90.0328 39.9757 89.3623 41.7323 89.1739 42.1811Z" fill="#0F70B7" stroke="#0F70B7" stroke-width="0.138528" stroke-miterlimit="10"/>
  <path d="M1.98853 42.2071C1.62949 42.2071 1.3395 42.1657 1.11855 42.0829C0.8976 42.0276 0.787126 41.9171 0.787126 41.7514C0.787126 41.5581 0.8976 41.4062 1.11855 41.2957C1.3395 41.1853 1.68473 41.0886 2.15424 41.0057C2.8447 40.8676 3.41088 40.5362 3.85278 40.0115C4.29467 39.4867 4.58466 38.741 4.72276 37.7744C5.05418 35.2887 5.34417 32.9273 5.59274 30.6902C5.8413 28.4255 6.03463 26.3956 6.17273 24.6004C6.33844 22.7776 6.42129 21.2862 6.42129 20.1262C6.42129 19.9052 6.42129 19.6705 6.42129 19.4219C6.42129 19.1733 6.40748 18.9524 6.37986 18.7591C6.35225 18.5381 6.31082 18.3172 6.25558 18.0962C6.20034 17.8477 6.03463 17.6129 5.75845 17.392C5.26132 16.9777 4.77799 16.7015 4.30848 16.5634C3.83897 16.3977 3.2866 16.2596 2.65137 16.1491C2.37519 16.0939 2.15424 15.9972 1.98853 15.8591C1.82282 15.6934 1.73996 15.5139 1.73996 15.3206C1.73996 15.0996 1.86425 14.9753 2.11281 14.9477C2.389 14.8925 2.73423 14.8649 3.1485 14.8649C3.42469 14.8649 3.83897 14.8787 4.39134 14.9063C4.97132 14.9339 5.59274 14.9753 6.25558 15.0306C6.91842 15.0858 7.52603 15.1272 8.0784 15.1549C8.65839 15.1825 9.08647 15.1963 9.36266 15.1963C9.55599 15.1963 9.7217 15.2515 9.85979 15.362C9.99788 15.4725 10.0945 15.6382 10.1498 15.8591C10.2879 16.3563 10.426 16.881 10.5641 17.4334C10.7022 17.9857 10.8679 18.5243 11.0612 19.0491L17.6068 35.6616C17.6896 35.8549 17.8415 35.9792 18.0625 36.0344C18.2834 36.062 18.4491 35.9792 18.5596 35.7858L26.7209 18.8005C26.859 18.331 26.997 17.8062 27.1351 17.2262C27.2732 16.6463 27.3837 16.1353 27.4666 15.6934C27.5494 15.3344 27.6875 15.1549 27.8808 15.1549H29.3722C30.2008 15.1549 31.0708 15.0996 31.9822 14.9891C32.9212 14.8787 33.6255 14.8234 34.095 14.8234C34.2331 14.8234 34.4126 14.8511 34.6335 14.9063C34.8545 14.9339 34.965 15.0444 34.965 15.2377C34.965 15.431 34.8821 15.5829 34.7164 15.6934C34.5783 15.8039 34.3021 15.942 33.8879 16.1077C33.5288 16.2458 33.1283 16.3977 32.6864 16.5634C32.2446 16.7291 31.8303 16.8948 31.4436 17.0605C31.1674 17.171 30.9327 17.3643 30.7393 17.6405C30.546 17.8891 30.4494 18.1653 30.4494 18.4691C30.4494 20.4024 30.477 22.2252 30.5322 23.9375C30.6151 25.6223 30.6979 27.2517 30.7808 28.826C30.8636 30.3726 30.9603 31.9055 31.0708 33.4245C31.1812 34.9435 31.2779 36.4901 31.3608 38.0644C31.416 38.9205 31.6922 39.5834 32.1893 40.0529C32.6864 40.4948 33.446 40.8124 34.4678 41.0057C34.9374 41.0886 35.2826 41.1853 35.5035 41.2957C35.7245 41.4062 35.835 41.5581 35.835 41.7514C35.835 41.9171 35.7245 42.0276 35.5035 42.0829C35.2826 42.1657 34.9926 42.2071 34.6335 42.2071C33.8879 42.2071 33.2664 42.1795 32.7693 42.1243C32.2998 42.0967 31.8441 42.069 31.4022 42.0414C30.9603 42.0138 30.4217 42 29.7865 42C29.2341 42 28.7646 42.0138 28.378 42.0414C28.0189 42.069 27.6185 42.0967 27.1766 42.1243C26.7623 42.1795 26.1823 42.2071 25.4366 42.2071C25.0776 42.2071 24.7876 42.1657 24.5666 42.0829C24.3457 42.0276 24.2352 41.9171 24.2352 41.7514C24.2352 41.5581 24.3457 41.4062 24.5666 41.2957C24.7876 41.1576 25.1328 41.061 25.6023 41.0057C26.4032 40.8953 26.9556 40.6191 27.2594 40.1772C27.5632 39.7077 27.7151 38.9896 27.7151 38.0229C27.7151 36.0344 27.6875 34.2392 27.6323 32.6373C27.6047 31.0355 27.5494 29.4612 27.4666 27.9146C27.3837 26.3403 27.3008 24.628 27.218 22.7776C27.1904 22.4737 27.1075 22.3357 26.9694 22.3633C26.8313 22.3633 26.6932 22.5014 26.5551 22.7776L17.0268 42.2071C16.9715 42.3452 16.8473 42.4143 16.6539 42.4143C16.4606 42.4419 16.3363 42.359 16.2811 42.1657C15.204 38.9344 14.044 35.7582 12.8012 32.6373C11.5859 29.4888 10.205 26.1056 8.65839 22.4876C8.60315 22.3495 8.50649 22.2804 8.36839 22.2804C8.2303 22.2804 8.14745 22.3495 8.11983 22.4876C7.87126 24.4208 7.6365 26.2022 7.41556 27.8317C7.22223 29.4336 7.07033 31.0217 6.95985 32.5959C6.84938 34.1702 6.79414 35.8963 6.79414 37.7744C6.79414 38.5201 7.0289 39.2105 7.49841 39.8458C7.96793 40.4534 8.63077 40.84 9.48694 41.0057C9.95645 41.0886 10.3017 41.1853 10.5226 41.2957C10.7436 41.4062 10.8541 41.5581 10.8541 41.7514C10.8541 41.9171 10.7436 42.0276 10.5226 42.0829C10.3017 42.1657 10.0117 42.2071 9.65265 42.2071C8.90695 42.2071 8.34078 42.1795 7.95412 42.1243C7.59508 42.0967 7.26366 42.069 6.95985 42.0414C6.68367 42.0138 6.2832 42 5.75845 42C5.26132 42 4.87466 42.0138 4.59847 42.0414C4.32229 42.069 4.00468 42.0967 3.64564 42.1243C3.2866 42.1795 2.73423 42.2071 1.98853 42.2071ZM40.9652 42.58C40.4681 42.58 39.9571 42.3867 39.4324 42C38.9352 41.6133 38.5071 41.1438 38.1481 40.5915C37.8167 40.0391 37.651 39.5143 37.651 39.0172C37.651 38.1334 37.8857 37.443 38.3552 36.9458C38.8248 36.4487 39.5705 35.993 40.5923 35.5787L44.818 33.8387C45.3703 33.6178 45.6879 33.4245 45.7708 33.2588C45.8813 33.093 45.9503 32.734 45.9779 32.1816L46.0608 29.5303C46.0884 28.8122 45.8813 28.1908 45.4394 27.666C45.0251 27.1413 44.4175 26.8789 43.6166 26.8789C43.2023 26.8789 42.788 26.9479 42.3737 27.086C41.9595 27.2241 41.6142 27.4036 41.338 27.6246C41.1723 27.7351 41.0619 27.9008 41.0066 28.1217C40.9514 28.3427 40.9238 28.5774 40.9238 28.826C40.9238 28.9365 40.9238 29.0608 40.9238 29.1988C40.9514 29.3369 40.9652 29.4612 40.9652 29.5717C40.9652 29.7098 40.7857 29.9031 40.4266 30.1517C40.0952 30.3726 39.7085 30.5798 39.2667 30.7731C38.8524 30.9388 38.5071 31.0217 38.231 31.0217C38.0929 31.0217 37.9824 30.994 37.8995 30.9388C37.8167 30.856 37.7753 30.7593 37.7753 30.6488C37.7753 30.2069 37.9133 29.7374 38.1895 29.2403C38.4933 28.7155 38.9076 28.2322 39.4324 27.7903C40.0676 27.2103 40.7581 26.6994 41.5037 26.2575C42.2494 25.8156 42.9813 25.4704 43.6994 25.2218C44.4175 24.9732 45.0527 24.8489 45.6051 24.8489C46.5994 24.8489 47.4141 25.208 48.0493 25.9261C48.7122 26.6165 49.0298 27.4865 49.0022 28.536L48.795 38.4786C48.7674 39.0586 48.8917 39.5281 49.1679 39.8872C49.4717 40.2462 49.8445 40.4257 50.2864 40.4257C50.9769 40.4257 51.4878 40.2738 51.8192 39.97C51.9573 39.832 52.0678 39.7629 52.1507 39.7629C52.2888 39.7629 52.3992 39.8043 52.4821 39.8872C52.5649 39.97 52.6064 40.0805 52.6064 40.2186C52.6064 40.5224 52.4545 40.8262 52.1507 41.13C51.7088 41.5719 51.2254 41.9171 50.7007 42.1657C50.2036 42.4419 49.734 42.58 49.2922 42.58C48.0217 42.58 47.0136 41.8619 46.2679 40.4257H46.1437C45.2322 41.1714 44.3623 41.71 43.5337 42.0414C42.7052 42.4005 41.849 42.58 40.9652 42.58ZM42.9123 40.5915C43.4647 40.5915 43.9342 40.5086 44.3208 40.3429C44.7075 40.1496 45.0527 39.901 45.3565 39.5972C45.4946 39.4591 45.6051 39.2796 45.6879 39.0586C45.7984 38.8101 45.8675 38.4234 45.8951 37.8987L45.9779 35.8687C46.0056 35.5649 45.9917 35.344 45.9365 35.2059C45.8813 35.0678 45.7708 34.9987 45.6051 34.9987C45.5499 34.9987 45.4532 35.0125 45.3151 35.0401C45.177 35.0678 44.9975 35.123 44.7765 35.2059C43.3128 35.7306 42.2909 36.283 41.7109 36.863C41.1585 37.4153 40.8823 37.9263 40.8823 38.3958C40.8823 39.1139 41.0895 39.6662 41.5037 40.0529C41.9456 40.4119 42.4152 40.5915 42.9123 40.5915ZM54.2806 42.1243C54.0044 42.1243 53.7973 42.0829 53.6592 42C53.5211 41.9448 53.4521 41.8343 53.4521 41.6686C53.4521 41.4476 53.5349 41.3095 53.7006 41.2543C53.8664 41.1714 54.1011 41.0886 54.4049 41.0057C54.9297 40.8676 55.3163 40.6743 55.5649 40.4257C55.8411 40.1496 55.9792 39.8181 55.9792 39.4315V30.5245C55.9792 29.7788 55.8687 29.1298 55.6477 28.5774C55.4268 28.0251 54.9711 27.6798 54.2806 27.5417C54.1702 27.5141 54.0735 27.4451 53.9906 27.3346C53.9078 27.2241 53.8664 27.1137 53.8664 27.0032C53.8664 26.727 53.9906 26.5613 54.2392 26.506C54.9573 26.2851 55.703 25.9675 56.4763 25.5532C57.2772 25.1113 57.8986 24.7523 58.3405 24.4761C58.5063 24.3656 58.6305 24.2966 58.7134 24.2689C58.8239 24.2137 58.9067 24.1861 58.962 24.1861C59.1 24.1861 59.1691 24.2828 59.1691 24.4761C59.1691 24.5589 59.1553 24.7661 59.1277 25.0975C59.1277 25.4289 59.1139 25.8156 59.0862 26.2575C59.0862 26.6994 59.0724 27.1413 59.0448 27.5832C59.0448 27.6384 59.0724 27.666 59.1277 27.666C59.5696 27.1136 60.0529 26.6303 60.5776 26.2161C61.13 25.8018 61.6824 25.4704 62.2347 25.2218C62.8147 24.9732 63.3671 24.8489 63.8919 24.8489C64.4718 24.8489 64.9414 24.9732 65.3004 25.2218C65.6871 25.4704 65.8804 25.788 65.8804 26.1746C65.8804 26.4508 65.7975 26.7546 65.6318 27.086C65.4937 27.4175 65.3004 27.7074 65.0518 27.956C64.8033 28.2046 64.5409 28.3289 64.2647 28.3289C64.099 28.3289 63.9195 28.3012 63.7261 28.246C63.5328 28.1632 63.3257 28.0665 63.1047 27.956C62.8838 27.8732 62.6628 27.7903 62.4419 27.7074C62.2209 27.6246 62 27.5832 61.779 27.5832C61.1162 27.5832 60.4672 27.8179 59.8319 28.2874C59.2243 28.7569 58.9205 29.6822 58.9205 31.0631V39.4315C58.9205 39.7905 59.1139 40.0943 59.5005 40.3429C59.8872 40.5638 60.4257 40.7848 61.1162 41.0057C61.42 41.0886 61.6548 41.1714 61.8205 41.2543C61.9862 41.3372 62.069 41.4752 62.069 41.6686C62.069 41.9724 61.7928 42.1243 61.2405 42.1243C60.4119 42.1243 59.7767 42.0829 59.3348 42C58.9205 41.9448 58.3544 41.9171 57.6363 41.9171C57.1668 41.9171 56.7801 41.931 56.4763 41.9586C56.2001 41.9862 55.8963 42.0138 55.5649 42.0414C55.2611 42.0967 54.833 42.1243 54.2806 42.1243ZM73.5024 42.58C72.1491 42.58 71.0858 42.1657 70.3125 41.3372C69.5668 40.5086 69.1939 39.2796 69.1939 37.6501V28.0389C69.1939 27.8179 69.1111 27.666 68.9454 27.5832C68.7797 27.4727 68.4206 27.4175 67.8683 27.4175H67.6197C67.4816 27.4175 67.3573 27.3346 67.2468 27.1689C67.164 26.9756 67.1226 26.7822 67.1226 26.5889C67.1226 26.5337 67.164 26.4508 67.2468 26.3403C67.3297 26.2299 67.3849 26.1608 67.4126 26.1332C67.9649 25.7465 68.4621 25.3599 68.904 24.9732C69.3735 24.5866 69.7877 24.2137 70.1468 23.8547C70.5334 23.468 70.8511 23.1228 71.0996 22.819C71.2377 22.6809 71.3482 22.5704 71.431 22.4876C71.5415 22.3771 71.6658 22.3218 71.8039 22.3218C71.942 22.3218 72.0663 22.3495 72.1767 22.4047C72.3148 22.4599 72.3701 22.5842 72.3425 22.7776L72.1353 24.6418C72.1077 24.9456 72.1767 25.1527 72.3425 25.2632C72.5082 25.3737 72.7705 25.4289 73.1296 25.4289H77.8523C77.9628 25.4289 78.0595 25.5256 78.1423 25.7189C78.2252 25.8846 78.2666 26.0918 78.2666 26.3403C78.2666 26.5889 78.2252 26.8375 78.1423 27.086C78.0595 27.307 77.9628 27.4175 77.8523 27.4175H73.751C73.0605 27.4175 72.6048 27.4727 72.3839 27.5832C72.1905 27.6936 72.0939 28.0251 72.0939 28.5774V36.7387C72.0939 37.8434 72.3286 38.7134 72.7982 39.3486C73.2677 39.9839 73.9443 40.3015 74.8281 40.3015C75.629 40.3015 76.2505 40.2462 76.6924 40.1358C77.1343 39.9977 77.5347 39.8043 77.8938 39.5558C77.949 39.5005 78.0042 39.4729 78.0595 39.4729C78.1699 39.4729 78.239 39.542 78.2666 39.68C78.3218 39.7905 78.3495 39.9148 78.3495 40.0529C78.3495 40.191 78.1147 40.4672 77.6452 40.8815C77.2033 41.2957 76.6095 41.6824 75.8638 42.0414C75.1457 42.4005 74.3586 42.58 73.5024 42.58Z" fill="#0F70B7"/>
</svg>
